<svg class="svg-icon" style="vertical-align: middle;overflow: hidden;" viewBox="0 0 1024 1024" version="1.1" xmlns="http://www.w3.org/2000/svg"><path d="M179.712 501.28896l264.47872 0c11.32544 0 20.48-9.15456 20.48-20.48L464.67072 216.33024c0-11.32544-9.15456-20.48-20.48-20.48L179.712 195.85024c-11.32544 0-20.48 9.15456-20.48 20.48l0 264.47872C159.232 492.11392 168.40704 501.28896 179.712 501.28896zM200.192 236.81024l223.51872 0 0 223.51872L200.192 460.32896 200.192 236.81024z"  /><path d="M529.63328 501.28896l264.47872 0c11.32544 0 20.48-9.15456 20.48-20.48L814.592 216.33024c0-11.32544-9.15456-20.48-20.48-20.48L529.63328 195.85024c-11.32544 0-20.48 9.15456-20.48 20.48l0 264.47872C509.15328 492.11392 518.32832 501.28896 529.63328 501.28896zM550.11328 236.81024l223.51872 0 0 223.51872L550.11328 460.32896 550.11328 236.81024z"  /><path d="M179.712 851.21024l264.47872 0c11.32544 0 20.48-9.15456 20.48-20.48L464.67072 566.23104c0-11.32544-9.15456-20.48-20.48-20.48L179.712 545.75104c-11.32544 0-20.48 9.15456-20.48 20.48l0 264.47872C159.232 842.0352 168.40704 851.21024 179.712 851.21024zM200.192 586.71104l223.51872 0 0 223.51872L200.192 810.22976 200.192 586.71104z"  /><path d="M509.15328 830.73024c0 11.32544 9.15456 20.48 20.48 20.48l264.47872 0c11.32544 0 20.48-9.15456 20.48-20.48L814.592 566.23104c0-11.32544-9.15456-20.48-20.48-20.48L529.63328 545.75104c-11.32544 0-20.48 9.15456-20.48 20.48L509.15328 830.73024zM550.11328 586.71104l223.51872 0 0 223.51872L550.11328 810.22976 550.11328 586.71104z"  /></svg>